<?xml version="1.0" standalone="no"?>
<!DOCTYPE svg PUBLIC "-//W3C//DTD SVG 20010904//EN"
 "http://www.w3.org/TR/2001/REC-SVG-20010904/DTD/svg10.dtd">
<svg version="1.0" xmlns="http://www.w3.org/2000/svg"
 width="1000px" height="1000px" viewBox="0 0 1000.000000 1000.000000"
 preserveAspectRatio="xMidYMid meet">

<g transform="translate(0.000000,1000.000000) scale(0.100000,-0.100000)"
fill="#FFFFFF" stroke="none">
<path d="M4765 8834 c-22 -2 -89 -9 -150 -14 -471 -46 -949 -190 -1393 -420
-769 -399 -1406 -1083 -1746 -1876 -60 -140 -166 -436 -166 -464 0 -6 37 -10
93 -10 l94 0 22 78 c80 275 294 702 487 972 141 197 405 505 426 498 6 -2 86
-121 180 -265 l169 -262 72 46 c40 25 74 48 76 49 2 2 -22 47 -53 99 -32 53
-56 102 -53 108 3 7 21 20 41 31 l35 19 73 -64 c40 -34 83 -72 96 -83 l22 -20
80 39 c44 22 79 42 78 46 -2 4 -32 33 -68 65 -36 31 -82 72 -103 91 l-37 33
16 32 c35 67 -13 218 -91 286 -31 28 -43 32 -90 32 -46 0 -70 -8 -152 -50
-105 -54 -105 -53 7 37 398 317 883 556 1387 682 143 36 362 75 523 93 149 16
573 16 720 -1 729 -82 1357 -339 1920 -785 137 -109 383 -345 490 -471 307
-361 542 -776 701 -1237 l34 -98 93 0 92 0 -6 28 c-16 63 -101 297 -156 427
-291 686 -786 1278 -1423 1702 -477 318 -1030 522 -1640 604 -143 19 -591 34
-700 23z m-1925 -1143 c31 -45 52 -100 44 -123 -3 -11 -33 -37 -67 -58 l-61
-39 -54 90 c-30 50 -52 92 -50 93 1 2 28 17 58 35 70 40 102 40 130 2z"/>
<path d="M6325 8329 c-15 -43 -225 -740 -225 -747 0 -12 141 -55 150 -45 4 4
31 76 60 158 29 83 61 167 72 189 19 37 21 38 59 33 48 -6 69 -22 69 -52 0
-19 -46 -147 -130 -362 -8 -20 -3 -24 58 -47 37 -14 72 -26 79 -26 6 0 48 87
94 193 61 142 84 206 87 248 4 53 3 56 -32 87 -34 30 -117 62 -160 62 -12 0
-34 -7 -50 -15 -15 -8 -31 -15 -35 -15 -4 0 14 64 41 141 26 78 48 145 48 149
0 4 -33 17 -74 29 -41 11 -82 24 -90 27 -9 3 -18 0 -21 -7z"/>
<path d="M4740 8263 c-57 -10 -91 -26 -114 -54 -31 -37 -36 -36 -36 2 l0 31
-72 -7 c-40 -3 -80 -8 -89 -11 -13 -4 -12 -32 14 -261 15 -142 30 -259 31
-261 2 -2 39 0 81 4 l78 7 -7 91 c-21 304 -21 291 3 315 25 25 82 28 102 5 8
-10 15 -75 22 -202 5 -103 12 -190 15 -194 4 -3 40 -4 80 -1 l73 6 -3 231 c-3
249 -7 265 -58 285 -33 13 -89 20 -120 14z"/>
<path d="M5513 8230 c-100 -24 -144 -123 -146 -335 -1 -74 2 -97 19 -125 32
-55 87 -80 201 -89 54 -5 101 -6 105 -2 3 3 9 27 13 52 l7 46 -67 8 c-52 5
-73 13 -91 30 -28 28 -28 31 -10 153 22 145 45 165 161 140 72 -17 67 -20 79
53 7 42 7 43 -97 65 -74 15 -123 16 -174 4z"/>
<path d="M3670 8061 c-112 -37 -190 -71 -190 -84 0 -20 23 -87 31 -87 4 0 48
16 98 35 115 45 155 46 176 5 25 -49 20 -58 -42 -75 -155 -43 -193 -73 -193
-153 0 -58 38 -144 74 -167 54 -36 183 0 221 62 21 34 35 42 35 21 1 -35 15
-38 84 -18 38 11 70 21 72 23 7 7 -76 348 -95 392 -36 81 -121 96 -271 46z
m164 -293 c3 -13 6 -38 6 -56 0 -28 -5 -35 -35 -48 -52 -21 -74 -18 -86 13
-19 51 -8 76 41 95 59 22 67 22 74 -4z"/>
<path d="M7172 7650 c-38 -23 -105 -123 -162 -241 -30 -63 -40 -95 -40 -133 0
-48 3 -53 53 -101 64 -60 201 -135 246 -135 18 0 44 6 59 14 54 28 181 184
232 285 26 52 24 114 -6 154 -28 36 -119 102 -198 142 -80 41 -134 45 -184 15z
m189 -153 c21 -14 35 -32 37 -47 3 -27 -73 -158 -131 -224 -28 -33 -37 -38
-60 -33 -14 4 -38 18 -53 30 -25 22 -26 26 -15 57 13 38 103 184 134 218 26
28 45 28 88 -1z"/>
<path d="M4730 7585 c-861 -86 -1635 -616 -2039 -1395 -181 -349 -272 -698
-287 -1100 -17 -438 78 -871 278 -1262 466 -912 1400 -1462 2418 -1425 332 13
643 83 935 212 608 269 1080 740 1348 1345 88 199 156 439 194 687 24 155 24
545 0 708 -125 859 -661 1598 -1432 1975 -450 220 -920 305 -1415 255z m496
-176 c297 -29 588 -113 859 -249 252 -127 434 -260 642 -471 372 -377 599
-846 674 -1389 20 -142 17 -488 -5 -630 -26 -169 -52 -279 -100 -426 -120
-359 -296 -648 -560 -921 -249 -258 -513 -437 -836 -566 -196 -79 -350 -120
-595 -158 -125 -20 -506 -17 -640 5 -249 40 -418 88 -620 176 -287 124 -519
281 -743 503 -383 378 -614 836 -698 1387 -22 142 -25 488 -5 630 53 387 180
726 386 1035 98 147 165 229 288 354 361 366 765 584 1267 685 220 44 465 57
686 35z"/>
<path d="M4760 7259 c-128 -14 -210 -30 -355 -69 -675 -184 -1218 -658 -1495
-1305 -281 -655 -229 -1427 138 -2043 91 -153 191 -281 327 -421 142 -145 227
-216 390 -324 264 -173 562 -287 900 -343 155 -26 515 -26 670 0 521 86 942
306 1305 682 385 398 605 915 627 1474 38 975 -535 1845 -1455 2211 -88 35
-326 102 -422 118 -180 30 -455 39 -630 20z m495 -50 c647 -67 1249 -443 1619
-1011 120 -185 243 -476 295 -698 72 -315 73 -684 1 -996 -136 -585 -497
-1084 -1022 -1410 -120 -74 -299 -156 -463 -210 -427 -140 -919 -143 -1346 -8
-217 69 -515 212 -504 242 10 27 156 209 223 280 l69 72 68 0 c86 0 208 -31
314 -81 46 -21 94 -39 106 -39 12 0 71 30 131 67 253 154 358 190 604 209 157
13 194 19 244 40 47 21 68 25 105 20 25 -3 102 -8 171 -12 68 -3 155 -12 193
-20 171 -36 277 -3 329 101 11 22 31 55 45 73 37 49 12 38 -41 -18 -26 -27
-49 -50 -52 -50 -2 0 8 24 22 53 l27 52 -59 -55 c-33 -30 -60 -58 -62 -62 -4
-9 -32 -11 -32 -3 0 2 14 34 32 70 l32 65 64 0 c43 0 75 -6 102 -20 22 -11 56
-20 76 -20 32 0 44 8 98 63 81 84 128 164 134 230 6 58 15 69 84 92 26 9 58
25 73 37 68 53 85 164 39 256 -32 64 -123 155 -201 202 -87 52 -252 195 -623
540 -96 89 -225 204 -285 255 -133 112 -196 178 -315 335 -62 81 -100 122
-116 125 -13 3 -35 7 -49 10 -16 4 -25 1 -25 -7 -1 -9 -4 -8 -13 3 -15 20 -69
55 -65 43 4 -16 -24 -114 -32 -114 -5 0 -12 5 -16 11 -4 8 -9 8 -17 0 -16 -16
-22 -14 -56 15 -17 14 -31 23 -31 21 0 -23 24 -46 94 -92 45 -30 92 -63 106
-74 l25 -21 -40 5 c-22 3 -53 2 -69 -3 -27 -7 -26 -9 35 -27 64 -18 64 -18 29
-25 -43 -8 -69 -22 -94 -49 -22 -24 -12 -27 24 -6 33 19 104 19 140 0 44 -23
71 -67 64 -104 -6 -31 -7 -31 -70 -30 -74 1 -132 -27 -182 -86 -29 -36 -55
-102 -46 -117 14 -22 119 -40 218 -36 l102 3 55 -67 c58 -72 75 -105 94 -183
l13 -50 1 54 1 54 25 -23 c14 -13 27 -21 31 -18 11 12 -24 74 -62 110 -22 20
-64 71 -93 112 -30 42 -59 76 -63 76 -4 0 -8 9 -8 21 0 11 -5 30 -11 41 -10
18 -9 20 6 14 21 -8 95 50 122 94 l17 30 23 -22 c13 -12 23 -26 23 -31 0 -5
-19 -33 -43 -61 -24 -28 -47 -58 -52 -65 -15 -26 52 28 88 69 l34 40 23 -25
23 -24 -42 -56 c-50 -67 -41 -71 19 -10 l44 45 22 -21 c28 -26 22 -46 -17 -54
-33 -8 -69 -48 -69 -79 0 -12 -6 -28 -12 -35 -11 -10 -10 -11 3 -6 12 5 18 -2
23 -27 5 -26 9 -30 16 -18 5 8 10 27 10 42 0 15 15 44 35 68 19 23 39 50 45
59 8 14 12 13 36 -10 l26 -27 -52 -66 c-28 -36 -48 -66 -43 -66 4 0 43 37 85
82 43 45 80 79 84 75 9 -9 -50 -132 -92 -189 l-36 -49 36 22 c20 12 66 53 101
92 36 39 65 66 65 59 0 -6 -9 -36 -21 -67 -16 -42 -25 -55 -36 -50 -13 4 -14
3 -4 -9 10 -12 9 -20 -5 -43 -18 -28 -18 -28 2 -10 26 22 37 22 59 -3 15 -17
16 -24 7 -45 -12 -27 -4 -33 16 -13 10 10 18 6 39 -15 l27 -27 -49 -50 c-59
-60 -47 -67 17 -10 l45 39 22 -23 c27 -29 20 -49 -36 -95 -52 -43 -26 -39 31
5 l48 36 24 -23 24 -23 -37 -38 c-21 -21 -38 -44 -38 -51 0 -7 -12 -27 -26
-46 l-26 -33 -36 49 c-19 26 -70 75 -113 108 -43 33 -102 82 -131 109 -41 38
-53 45 -53 30 0 -46 53 -129 128 -203 70 -68 79 -82 96 -141 28 -101 27 -98
38 -70 5 14 8 41 6 62 l-3 36 27 -19 c15 -11 36 -31 47 -44 28 -36 32 -31 16
21 l-14 47 48 43 c27 24 58 62 69 84 18 37 20 38 34 22 30 -35 29 -41 -9 -61
-36 -18 -90 -77 -80 -87 2 -3 35 16 72 41 68 47 80 48 107 11 14 -20 -128
-137 -146 -119 -3 4 -6 -17 -6 -47 0 -48 1 -51 17 -39 13 11 17 11 20 2 9 -26
24 -12 21 20 -2 17 -7 30 -12 29 -5 -2 -12 2 -17 9 -5 9 4 18 31 30 21 9 56
34 79 54 l41 37 20 -23 c10 -13 19 -27 20 -30 0 -3 -17 -25 -37 -49 l-38 -45
32 23 c18 13 35 27 38 32 13 20 23 9 28 -32 5 -35 2 -47 -16 -66 -17 -18 -18
-22 -4 -16 15 5 17 -1 17 -45 0 -38 -4 -51 -14 -51 -8 0 -18 -5 -21 -11 -10
-15 59 16 108 50 24 16 54 46 68 65 26 39 33 41 67 22 l23 -12 -45 -61 c-40
-53 -77 -85 -141 -122 -18 -11 -18 -11 5 -5 67 18 133 71 190 154 12 17 21 21
38 16 28 -9 28 -30 0 -69 -61 -88 -169 -177 -214 -177 -10 0 -15 -3 -12 -6 13
-12 82 10 128 42 l49 34 25 -24 c23 -24 23 -26 6 -41 -10 -9 -33 -18 -53 -22
-24 -3 -34 -10 -30 -19 3 -9 -8 -15 -34 -19 -21 -4 -45 -9 -53 -12 -13 -5 -12
-7 2 -10 26 -6 179 38 194 56 7 9 26 30 41 47 50 55 83 103 109 156 l25 53 -4
-63 c-3 -60 -6 -65 -54 -115 -58 -59 -83 -103 -83 -145 0 -39 -64 -135 -133
-199 -31 -29 -59 -53 -64 -53 -4 0 -23 9 -42 21 -48 29 -120 34 -231 16 -91
-15 -282 -30 -400 -32 -38 -1 -66 -8 -90 -23 -38 -24 -36 -27 7 -12 l28 10
-33 -30 c-33 -30 -62 -39 -62 -19 0 6 16 47 35 91 20 44 34 82 32 84 -2 2 -19
-22 -37 -54 -58 -96 -99 -149 -120 -155 -11 -3 -20 -2 -20 2 0 7 34 95 65 165
31 72 29 76 -21 76 -24 0 -44 3 -44 6 0 3 16 31 35 62 36 59 75 158 75 189 -1
12 -23 -6 -69 -54 l-69 -72 19 60 c29 94 25 100 -29 44 -26 -27 -60 -66 -74
-85 l-27 -35 14 40 c8 22 14 48 15 58 0 10 6 30 14 45 7 15 17 38 20 52 6 20
2 18 -16 -11 -13 -19 -45 -62 -73 -95 -27 -32 -52 -63 -57 -68 -18 -23 9 76
40 144 19 41 38 86 44 100 15 41 -13 5 -61 -75 -22 -38 -51 -83 -63 -98 -13
-16 -31 -39 -40 -50 l-18 -22 0 30 c0 17 22 82 50 145 27 63 48 116 46 117 -5
5 -51 -68 -84 -134 -17 -33 -42 -73 -55 -89 -13 -16 -29 -38 -35 -49 -10 -17
-11 -15 -12 21 0 41 42 149 114 293 20 39 34 71 31 71 -11 0 -92 -132 -133
-219 -25 -53 -58 -114 -74 -135 l-28 -39 0 42 c0 47 46 175 109 299 23 45 39
82 36 82 -18 0 -125 -189 -161 -285 -18 -50 -72 -138 -60 -100 3 11 12 61 19
111 11 74 25 114 70 208 31 64 54 116 53 116 -10 0 -92 -133 -147 -237 -35
-67 -64 -121 -65 -120 -1 1 4 41 11 89 15 99 71 218 161 344 62 86 58 97 -7
22 -66 -78 -98 -128 -179 -283 l-73 -140 7 75 c11 112 99 287 219 435 l41 50
-53 -50 c-86 -82 -146 -171 -218 -323 -37 -79 -69 -140 -70 -135 -2 6 3 51 11
102 20 125 70 217 232 431 15 19 -5 3 -43 -36 -39 -39 -88 -97 -110 -130 -53
-77 -173 -313 -173 -338 0 -11 -2 -17 -5 -14 -3 3 -1 45 5 94 8 68 20 108 50
169 44 92 112 196 179 275 44 53 45 54 11 28 -99 -75 -223 -270 -311 -488 -24
-60 -23 -34 1 65 52 204 73 251 186 405 l55 75 -58 -60 c-32 -33 -80 -94 -108
-135 -27 -41 -60 -87 -72 -102 -12 -15 -34 -54 -49 -85 -25 -53 -27 -70 -31
-210 -3 -86 0 -182 6 -223 7 -40 9 -75 7 -77 -3 -3 -15 27 -27 66 -18 62 -20
86 -15 174 4 56 7 115 8 130 0 16 4 24 8 17 4 -6 7 9 7 32 1 56 67 259 105
323 17 28 51 77 76 110 l44 60 -42 -40 c-41 -39 -163 -202 -210 -280 -14 -22
-25 -56 -26 -75 -1 -19 -6 -64 -12 -100 -16 -88 -15 -251 2 -330 8 -36 13 -66
11 -68 -1 -1 -12 20 -24 48 -44 102 -44 261 -2 384 24 69 24 69 10 60 -15 -9
-7 16 48 150 53 132 98 211 166 291 45 54 41 51 -37 -25 -47 -47 -112 -120
-144 -162 -31 -43 -59 -73 -61 -67 -4 14 69 158 118 234 20 30 61 82 91 117
53 61 54 62 14 31 -22 -18 -83 -76 -134 -129 -59 -62 -90 -89 -85 -73 16 53
103 178 174 253 89 92 57 81 -61 -21 -40 -35 -76 -63 -80 -63 -36 0 58 126
144 195 40 32 80 65 88 73 26 25 -88 -41 -147 -85 -31 -23 -59 -41 -61 -39 -2
2 2 21 8 43 10 33 26 48 121 112 60 41 109 76 109 78 0 1 -12 -2 -26 -8 -26
-9 -26 -8 10 35 43 53 85 139 93 193 7 43 56 125 61 102 2 -12 18 -8 73 20 47
23 65 37 57 43 -25 15 -67 8 -97 -18 l-31 -25 30 64 c98 208 66 413 -93 593
l-32 37 35 -18 c19 -10 62 -45 94 -78 33 -33 81 -69 107 -82 69 -32 79 -42 79
-85 0 -46 -12 -47 -61 -6 -42 36 -52 16 -13 -26 l29 -30 -33 17 c-45 22 -52
13 -12 -16 28 -21 29 -25 14 -36 -15 -11 -13 -14 19 -33 48 -29 60 -66 46
-147 -6 -35 -9 -67 -6 -69 3 -3 14 11 25 32 l19 37 7 -35 c8 -42 39 -78 69
-78 l21 0 -22 16 c-28 19 -28 26 2 61 23 27 23 30 7 40 -13 8 -17 20 -14 37 3
14 8 26 12 26 6 0 54 -26 143 -78 38 -22 146 -57 153 -50 3 2 -43 37 -101 78
-145 102 -174 135 -74 85 59 -30 64 -20 15 24 -43 37 -94 63 -157 81 l-47 12
1 59 c1 68 -9 84 -70 110 -54 23 -124 71 -180 122 -24 21 -69 51 -100 65 -51
24 -69 27 -164 27 l-108 0 -172 -89 c-95 -49 -192 -102 -216 -118 -80 -55
-104 -60 -292 -64 -286 -6 -417 -24 -597 -82 -51 -16 -93 -28 -93 -25 0 17
144 188 240 284 172 172 318 284 517 391 411 224 837 307 1318 257z m-447
-635 c23 -19 42 -39 42 -42 0 -4 -18 -20 -40 -36 -22 -17 -40 -38 -40 -48 0
-10 -7 -34 -14 -53 -18 -43 -8 -45 50 -11 l41 23 16 -26 c24 -41 47 -130 47
-183 l0 -48 -25 16 c-30 19 -36 68 -8 57 17 -7 17 -6 0 20 -9 14 -18 37 -18
49 -2 23 -2 23 -6 1 -4 -19 -7 -20 -33 -11 -21 7 -40 6 -67 -3 l-38 -13 60
-10 c50 -9 61 -15 63 -33 3 -21 0 -21 -55 -17 l-58 4 40 -20 c22 -11 46 -20
54 -20 10 0 12 -10 7 -42 -4 -23 -9 -44 -11 -46 -2 -3 -23 12 -46 32 -23 20
-44 34 -47 31 -2 -2 6 -20 18 -41 l23 -36 -21 11 c-31 16 -27 5 13 -41 28 -33
32 -44 24 -60 -10 -18 -13 -15 -41 29 -32 50 -78 109 -78 99 0 -13 51 -120 70
-147 12 -16 20 -35 17 -42 -2 -6 -11 2 -20 19 -9 17 -28 44 -44 61 -44 47 -73
91 -73 108 0 9 13 42 29 74 17 32 33 83 36 112 5 34 17 69 35 94 15 22 35 56
45 75 l18 35 -37 -33 c-45 -39 -58 -41 -50 -4 5 19 -8 7 -43 -43 -54 -75 -116
-137 -182 -180 -22 -15 -41 -31 -41 -34 0 -4 -15 -14 -32 -23 -18 -9 -91 -60
-163 -113 -71 -54 -157 -111 -190 -127 -37 -17 -52 -28 -38 -28 37 0 193 86
298 165 116 86 191 129 266 150 l54 15 -55 -4 -55 -5 35 15 c19 9 57 32 84 52
l49 36 -7 -44 c-4 -25 -20 -73 -36 -107 -36 -74 -36 -85 -9 -130 19 -30 20
-37 8 -64 l-12 -31 -23 30 c-13 16 -33 32 -44 35 -20 5 -19 4 3 -19 37 -37 44
-75 16 -97 -21 -17 -22 -17 -39 10 -18 30 -60 71 -60 59 0 -17 29 -72 44 -85
16 -13 15 -16 -10 -43 -32 -33 -50 -36 -59 -9 -3 10 -15 27 -27 37 -23 20 -23
19 6 -47 14 -35 14 -38 -5 -55 -20 -18 -21 -17 -60 26 l-39 45 26 -57 27 -56
-31 -43 -32 -43 0 30 c0 16 -4 35 -9 43 -7 11 -11 5 -16 -22 -7 -35 -6 -50 10
-159 4 -26 4 -59 0 -75 -6 -26 -7 -27 -18 -8 -6 11 -21 54 -34 95 l-22 75 0
-60 c-1 -62 19 -118 60 -176 27 -38 44 -37 24 1 -12 22 -13 35 -5 49 5 11 10
37 10 58 0 28 3 34 10 23 9 -13 10 -13 10 0 0 8 -5 33 -10 54 -7 30 -5 47 7
70 l16 31 13 -53 c15 -56 47 -127 64 -137 17 -11 0 57 -35 132 -29 62 -31 74
-19 84 8 6 16 10 18 8 9 -11 86 -201 86 -212 0 -7 -13 -27 -29 -46 l-28 -34
-7 36 c-10 55 -26 55 -26 0 0 -55 -25 -160 -43 -181 -7 -8 -25 -54 -42 -101
-35 -102 -52 -109 -77 -36 -15 45 -25 185 -13 185 2 0 19 -9 37 -20 44 -26 59
-25 28 3 -52 45 -55 55 -30 82 13 14 19 25 13 25 -6 0 -16 -7 -23 -15 -7 -8
-16 -15 -21 -15 -11 0 -49 105 -49 136 0 16 -4 23 -11 18 -17 -10 -5 -105 19
-153 14 -26 22 -59 22 -89 l-1 -47 -39 75 c-22 41 -50 86 -61 100 l-20 25 6
-25 c12 -43 53 -129 85 -176 17 -25 34 -64 39 -87 l10 -42 -40 44 c-77 86
-138 215 -170 361 l-19 85 5 -90 c2 -55 12 -113 25 -150 28 -81 94 -179 149
-223 25 -20 58 -47 72 -59 l26 -24 -19 -67 c-42 -151 -59 -289 -57 -472 2
-172 1 -177 -32 -282 l-33 -108 -30 20 c-36 22 -36 9 5 214 17 81 28 150 26
152 -3 3 -22 -66 -44 -153 l-39 -158 -22 48 -21 48 79 257 c43 141 88 284 100
316 11 33 18 61 17 63 -6 5 -80 -162 -107 -239 -13 -37 -25 -66 -28 -64 -4 5
62 251 102 381 14 43 24 81 22 83 -12 12 -156 -428 -195 -598 -32 -133 -29
-127 -48 -107 -16 16 -16 24 5 133 24 119 78 317 112 407 38 99 -2 28 -49 -89
-48 -118 -106 -303 -118 -376 -4 -28 -10 -38 -24 -38 -15 0 -17 6 -14 28 3 15
28 148 55 296 28 148 48 271 46 273 -6 7 -63 -174 -92 -292 -13 -55 -31 -152
-40 -215 -9 -68 -22 -122 -31 -132 -8 -9 -21 -36 -29 -60 -13 -40 -14 -31 -10
122 3 91 7 176 10 190 3 14 -3 -2 -14 -34 -30 -89 -45 -228 -33 -319 8 -69 7
-79 -9 -94 -10 -9 -20 -14 -23 -12 -4 5 10 251 21 344 7 68 -9 41 -37 -61 -15
-55 -22 -110 -23 -181 l-1 -103 -35 0 c-20 0 -42 -6 -49 -12 -10 -11 -12 5 -6
87 7 107 23 288 30 345 4 26 1 22 -10 -15 -32 -111 -77 -440 -76 -565 0 -86
22 -338 36 -426 8 -48 13 -89 11 -91 -1 -2 -18 45 -37 105 -28 91 -33 122 -34
207 0 55 3 125 7 155 7 47 6 51 -4 25 -6 -17 -11 -90 -11 -165 -1 -133 0 -137
41 -257 31 -90 42 -136 42 -182 0 -34 -4 -61 -8 -61 -5 0 -20 13 -35 28 -20
21 -33 53 -49 123 -19 80 -22 124 -23 293 l0 198 -19 -58 c-26 -78 -28 -340
-4 -423 l16 -53 -25 24 c-20 20 -25 40 -33 114 -5 49 -10 116 -11 149 l-1 60
-14 -55 c-7 -30 -16 -82 -20 -114 l-7 -60 -23 28 c-22 24 -24 37 -24 126 0
172 48 475 101 629 20 60 19 50 -7 -94 -23 -131 -15 -137 26 -19 39 116 70
247 94 397 15 97 8 103 -19 17 -10 -30 -42 -111 -72 -179 -89 -204 -149 -448
-169 -691 l-6 -84 -20 24 c-19 23 -20 34 -13 150 10 186 93 539 174 738 15 38
17 51 7 45 -28 -16 -96 -109 -131 -177 -19 -39 -35 -69 -35 -66 0 4 13 48 30
100 16 52 28 96 26 98 -8 7 -77 -84 -110 -146 -40 -75 -43 -72 -21 24 9 36 14
68 12 70 -8 8 -41 -38 -81 -115 l-41 -80 2 77 3 77 -30 -60 c-16 -33 -39 -91
-52 -128 -19 -59 -23 -65 -31 -45 -5 13 -5 53 -2 90 8 79 -3 109 -20 57 l-12
-34 -11 40 c-55 206 -55 206 9 155 58 -46 84 -52 74 -17 -19 62 -59 132 -103
180 l-49 52 -6 115 -6 115 59 -120 c33 -66 60 -128 60 -138 0 -52 57 -134 112
-163 40 -21 47 -18 39 19 -14 58 -42 105 -93 153 -57 53 -88 114 -138 269 -35
108 -35 126 -9 299 14 92 22 84 38 -37 17 -126 54 -246 115 -372 29 -60 57
-128 60 -150 11 -56 39 -97 84 -123 22 -12 43 -22 47 -22 12 0 -4 81 -22 111
-10 16 -36 42 -59 59 -34 24 -49 45 -79 117 -67 160 -125 435 -103 493 6 14 7
65 3 116 -4 67 -2 110 10 160 31 137 96 267 124 249 9 -5 7 -14 -5 -33 -17
-27 -17 -27 3 -9 30 26 34 3 11 -51 -11 -24 -30 -85 -44 -135 -13 -51 -31
-113 -40 -139 -15 -44 -15 -52 0 -97 9 -28 16 -69 16 -93 1 -120 62 -329 136
-465 24 -46 44 -94 44 -108 0 -56 50 -115 98 -115 22 0 24 3 17 38 -9 49 -29
79 -69 103 -54 32 -133 227 -166 409 -20 111 -12 393 15 499 l18 74 24 -47
c13 -27 27 -46 29 -43 3 2 -4 20 -15 38 -39 67 -29 111 40 187 27 30 61 74 75
98 14 24 29 44 33 44 11 0 -24 -106 -65 -201 -32 -74 -51 -142 -90 -314 -23
-105 -22 -240 4 -325 21 -70 104 -261 146 -336 14 -26 26 -62 26 -81 0 -40 45
-93 79 -93 18 0 21 6 21 39 0 39 -32 84 -69 96 -20 6 -54 71 -88 170 -19 54
-29 120 -43 285 -11 118 -19 229 -19 245 1 28 2 28 11 -9 6 -23 18 -40 29 -43
15 -4 17 -12 12 -52 -6 -57 12 -178 37 -241 10 -25 32 -81 50 -125 17 -44 48
-109 68 -145 24 -44 35 -75 33 -97 -3 -38 27 -73 65 -73 23 0 25 3 22 43 -3
37 -7 44 -38 59 -64 32 -126 194 -134 349 l-6 104 14 -72 c8 -39 22 -95 31
-125 18 -54 72 -168 80 -168 2 0 -7 32 -20 70 -36 107 -65 251 -79 395 l-13
130 -7 -90 c-10 -127 -14 -133 -15 -29 0 50 -4 105 -7 121 -6 28 -3 31 25 35
60 9 67 -6 74 -154 7 -155 25 -252 73 -398 30 -89 122 -285 130 -277 2 1 -15
52 -37 112 -66 179 -114 392 -134 598 -7 67 -6 67 18 67 16 0 33 10 44 25 18
26 18 25 9 -52 -7 -66 -5 -102 18 -240 14 -89 36 -191 49 -226 25 -67 100
-189 138 -222 l23 -20 -21 35 c-39 65 -123 241 -123 257 0 3 18 -21 39 -54 68
-101 83 -102 32 -1 -80 160 -119 312 -123 480 l-3 103 32 3 32 3 -6 -118 c-3
-70 -1 -132 5 -153 l10 -35 1 48 c1 27 8 95 17 153 13 79 21 107 34 114 14 8
17 18 13 50 -4 27 -1 47 11 64 9 14 16 37 16 50 0 23 43 66 54 55 3 -2 -2 -29
-10 -59 -24 -93 -16 -112 15 -34 60 154 161 317 263 430 28 30 45 54 40 54 -6
0 -14 -4 -17 -10 -3 -5 -15 -14 -25 -20 -17 -9 -18 -7 -10 21 5 18 11 33 12
34 2 1 30 7 63 14 45 8 80 25 140 66 44 30 118 74 164 98 76 40 88 44 120 35
53 -15 92 -36 129 -71 17 -17 32 -26 32 -19 0 17 -64 62 -124 86 l-55 22 30
18 c57 34 134 55 205 55 67 1 73 -1 112 -35z m101 -161 c31 -38 47 -86 38
-120 -3 -14 -7 -10 -17 16 -7 19 -25 58 -40 88 -31 62 -24 68 19 16z m-939
-127 c0 -50 -49 -107 -110 -127 -19 -6 -41 -16 -47 -22 -18 -14 -16 4 4 33 17
25 17 25 -4 7 -70 -61 -180 -274 -215 -416 l-23 -92 -36 3 c-34 3 -38 0 -63
-44 -21 -37 -33 -48 -52 -48 -23 0 -24 2 -25 83 -1 84 -16 77 -18 -10 l-1 -41
-30 15 c-18 8 -41 12 -55 9 -14 -4 -25 -5 -25 -2 0 2 13 48 30 103 45 154 91
253 149 323 28 34 67 93 86 131 19 37 45 74 57 81 22 11 155 23 306 26 57 2
72 -1 72 -12z m-591 -49 c-2 -2 -28 -18 -57 -35 -46 -28 -51 -30 -42 -11 11
20 61 48 89 49 8 0 12 -1 10 -3z m64 -49 c-44 -46 -76 -103 -88 -156 -4 -18
-25 -71 -46 -117 -22 -46 -56 -148 -76 -227 -19 -79 -37 -145 -40 -147 -9 -11
-25 20 -37 71 -11 49 -10 63 10 144 32 125 56 177 115 242 28 32 71 90 95 131
38 65 68 94 104 100 2 1 -14 -18 -37 -41z m1695 20 c11 -13 23 -36 27 -53 l6
-30 -15 32 c-16 34 -43 53 -76 53 -12 0 -18 5 -15 10 11 18 51 11 73 -12z
m-1971 -70 c-29 -29 -64 -78 -79 -108 -27 -58 -52 -87 -62 -72 -3 5 10 29 28
55 18 25 44 69 57 96 19 42 31 53 64 65 22 8 41 15 42 15 1 1 -22 -23 -50 -51z
m1779 -49 c-14 -33 -14 -34 -15 -7 -1 15 5 40 12 55 11 25 12 25 15 6 2 -11
-4 -36 -12 -54z m-1099 19 c-18 -24 -46 -65 -61 -92 -21 -36 -31 -45 -37 -35
-24 37 15 120 70 149 57 30 65 24 28 -22z m1045 20 c15 -12 15 -20 -8 -90 -14
-43 -29 -78 -34 -78 -17 0 -23 50 -10 98 7 26 14 55 17 65 5 20 13 21 35 5z
m-191 -215 l21 -52 -30 -42 -31 -41 -6 38 c-4 22 -13 60 -21 85 -13 42 -13 49
3 77 18 31 18 31 30 9 7 -12 22 -46 34 -74z m-961 57 c15 -29 4 -58 -31 -75
l-29 -15 20 50 c11 28 20 53 20 55 0 11 10 3 20 -15z m1083 -64 c-14 -26 -16
-27 -25 -12 -7 12 -6 27 2 47 12 27 14 28 25 12 11 -15 10 -23 -2 -47z m517
-6 c-6 -23 -9 -44 -7 -46 3 -3 23 16 45 41 24 28 42 41 44 33 5 -13 -18 -113
-30 -135 -5 -7 -30 10 -72 47 l-65 58 35 36 c29 31 36 34 48 22 11 -11 11 -21
2 -56z m-721 -65 c20 -69 20 -77 6 -99 -26 -39 -42 -39 -49 0 -4 18 -18 46
-32 61 -14 16 -24 21 -21 13 2 -8 15 -55 28 -105 22 -83 24 -87 29 -53 6 44
56 91 71 67 7 -11 9 -8 9 8 0 26 67 106 81 97 5 -3 9 2 9 11 0 9 5 25 11 36 8
16 13 18 25 8 17 -14 -11 -50 -183 -240 -128 -142 -120 -139 -142 -44 -7 28
-23 73 -36 102 -17 37 -20 54 -12 62 23 23 34 8 65 -86 l31 -98 1 53 c0 29 -9
81 -21 115 l-21 62 34 28 c18 15 44 39 57 52 13 14 27 25 31 25 4 0 17 -34 29
-75z m866 -32 c-9 -49 -19 -60 -42 -43 -15 12 -16 12 -5 0 14 -16 16 -50 3
-50 -5 0 -19 13 -30 29 l-21 29 40 36 c52 47 64 46 55 -1z m55 -88 l0 -40 -27
27 c-26 26 -26 27 -8 54 21 33 35 18 35 -41z m-28 -65 c-2 -3 -10 -16 -16 -29
-13 -23 -13 -22 -28 22 -19 58 -5 79 26 39 12 -14 19 -29 18 -32z m-1872 46
c0 -3 -4 -8 -10 -11 -5 -3 -10 -1 -10 4 0 6 5 11 10 11 6 0 10 -2 10 -4z
m1958 -39 c4 -31 -8 -35 -31 -9 -13 14 -14 21 -5 30 18 18 33 9 36 -21z m-870
-19 c-14 -41 -133 -161 -173 -175 -24 -8 -9 11 75 97 58 59 106 108 107 109 1
0 -3 -14 -9 -31z m817 -105 c-21 -26 -41 -52 -45 -56 -4 -4 -6 20 -4 53 1 42
7 67 20 81 18 20 18 20 43 -5 l24 -25 -38 -48z m114 51 c3 -16 1 -17 -13 -5
-19 16 -21 34 -3 29 6 -3 14 -13 16 -24z m71 -69 c0 -8 -4 -15 -9 -15 -13 0
-22 16 -14 24 11 11 23 6 23 -9z m70 -77 c0 -30 0 -31 -20 -13 -15 14 -17 21
-9 32 19 22 29 15 29 -19z m-400 -23 c15 -19 4 -52 -21 -60 -38 -12 -65 35
-37 63 16 16 43 15 58 -3z m460 -45 c0 -22 -2 -40 -4 -40 -2 0 -11 12 -21 26
-13 20 -14 28 -4 40 20 24 29 16 29 -26z m205 -162 c-39 -127 -34 -119 -61
-102 l-24 16 41 49 c42 51 51 58 44 37z m220 -122 c116 -99 373 -352 300 -295
-143 112 -416 359 -456 414 -17 23 46 -24 156 -119z m-1886 77 c-31 -52 -161
-243 -165 -243 -8 0 37 103 62 142 25 39 112 138 121 138 3 0 -6 -17 -18 -37z
m1732 -70 c-18 -75 -25 -82 -55 -54 l-25 24 37 47 c20 27 41 44 46 40 5 -5 3
-29 -3 -57z m71 -38 c-5 -38 -10 -42 -32 -22 -8 6 -6 2 4 -11 16 -19 17 -26 7
-48 l-12 -27 -24 23 c-14 13 -25 26 -25 30 0 10 70 90 79 90 4 0 5 -16 3 -35z
m68 -55 c0 -33 -11 -38 -30 -15 -10 12 -10 18 0 30 19 23 30 18 30 -15z
m-1915 -72 c-106 -226 -137 -409 -99 -581 9 -40 25 -90 35 -111 31 -65 14 -52
-19 14 -86 172 -80 378 19 590 36 76 96 180 104 180 2 0 -16 -42 -40 -92z
m1890 22 c16 -18 17 -23 5 -45 l-14 -26 -24 24 c-20 21 -22 28 -13 46 14 26
23 26 46 1z m95 -12 c0 -30 0 -31 -20 -13 -15 14 -17 21 -9 32 19 22 29 15 29
-19z m-10 -77 c0 -3 -7 -15 -15 -26 -15 -19 -16 -19 -37 2 -19 19 -20 25 -9
49 l12 27 24 -23 c14 -13 25 -26 25 -29z m80 17 c0 -30 -1 -31 -17 -16 -13 14
-14 20 -3 32 18 22 20 20 20 -16z m-2011 -62 c-30 -69 -66 -220 -74 -311 -7
-89 5 -187 35 -274 25 -72 -1 -41 -30 36 -61 163 -44 356 46 535 39 78 56 88
23 14z m2001 -15 c0 -3 -8 -16 -18 -29 l-18 -23 -22 21 c-21 20 -21 22 -6 51
l16 31 24 -23 c13 -12 24 -25 24 -28z m80 19 c0 -33 -11 -38 -30 -15 -10 12
-10 18 0 30 19 23 30 18 30 -15z m66 -57 c-4 -21 -9 -53 -12 -71 -2 -18 -21
-58 -42 -89 l-37 -56 -7 49 c-6 42 -4 54 20 91 21 34 31 41 47 37 19 -6 19 -5
3 12 -17 17 -17 19 4 41 29 31 32 29 24 -14z m-94 10 c23 -21 23 -28 -3 -69
l-20 -34 -23 27 -23 27 19 33 c23 38 25 39 50 16z m-1981 -11 c-18 -34 -51
-176 -61 -262 -11 -92 1 -222 26 -294 20 -56 10 -55 -14 1 -54 126 -62 274
-23 403 22 72 66 170 77 170 2 0 0 -8 -5 -18z m2144 -64 c-8 -53 -23 -105 -24
-80 -2 32 -21 -3 -21 -37 0 -34 -8 -48 -64 -107 -35 -38 -67 -66 -71 -62 -15
15 17 103 54 147 21 25 49 66 61 91 23 45 60 100 68 100 2 0 1 -24 -3 -52z
m61 -104 c-5 -13 -56 -20 -56 -8 0 4 12 25 28 49 l27 42 3 -34 c2 -19 1 -41
-2 -49z m248 -42 c30 -43 49 -143 29 -155 -6 -4 -10 9 -11 28 -3 66 -54 135
-167 223 -19 15 -3 9 45 -16 53 -27 83 -50 104 -80z m-2880 34 c-3 -15 -8 -25
-11 -23 -2 3 -1 17 3 31 3 15 8 25 11 23 2 -3 1 -17 -3 -31z m2702 -13 c-11
-11 -17 4 -9 23 7 18 8 18 11 1 2 -10 1 -21 -2 -24z m-2719 -45 c-3 -8 -6 -5
-6 6 -1 11 2 17 5 13 3 -3 4 -12 1 -19z m2767 -19 c25 -29 38 -98 16 -84 -5 3
-10 12 -10 19 0 7 -16 31 -36 54 -31 37 -33 42 -16 42 11 0 32 -14 46 -31z
m-2787 -71 c-3 -8 -6 -5 -6 6 -1 11 2 17 5 13 3 -3 4 -12 1 -19z m2770 -14 c8
-22 -43 -72 -58 -57 -9 9 -6 19 12 42 27 34 37 38 46 15z m-2911 -41 c-22
-134 -28 -243 -23 -431 4 -114 9 -223 12 -242 3 -19 -6 3 -19 50 -29 100 -84
258 -98 280 -15 24 0 -78 28 -192 15 -57 44 -152 67 -211 l40 -108 -18 -60
c-10 -32 -22 -59 -26 -59 -4 0 -33 48 -65 108 -31 59 -62 112 -69 117 -7 6
-22 38 -35 73 -12 34 -25 61 -27 58 -7 -7 26 -185 49 -261 29 -99 79 -237 85
-232 4 4 -12 114 -24 167 -5 22 -2 21 21 -10 15 -19 33 -40 42 -46 13 -10 12
-18 -6 -64 -12 -30 -20 -63 -19 -74 2 -37 -1 -52 -15 -71 -13 -18 -16 -17 -64
18 -47 35 -50 40 -56 95 -15 133 -19 149 -27 122 -4 -14 -7 -51 -8 -82 -1 -32
-4 -58 -8 -58 -4 0 -17 10 -30 22 -24 22 -30 62 -13 88 8 12 10 10 10 -9 0
-13 2 -22 5 -20 2 3 -3 61 -11 129 -8 69 -17 246 -21 394 -6 254 -5 270 12
283 11 7 33 13 50 13 31 0 32 -1 46 -72 l14 -73 3 71 c3 64 5 72 27 82 23 11
24 9 46 -64 12 -41 24 -73 26 -71 2 3 -3 46 -12 98 -14 88 -14 96 5 158 34
112 41 108 34 -19 -4 -63 -4 -113 -1 -110 3 3 13 48 22 100 24 145 25 150 42
150 12 0 14 -8 9 -37z m125 -23 c-5 -25 -9 -35 -10 -24 -1 28 11 92 16 79 1
-6 -1 -30 -6 -55z m-72 -157 c-14 -87 -29 -192 -32 -233 -5 -61 1 -40 33 109
21 102 42 196 45 209 5 22 9 18 36 -38 l30 -64 -37 -170 c-20 -94 -42 -184
-49 -201 -7 -16 -18 -62 -24 -101 -6 -40 -15 -82 -20 -95 -8 -23 -9 -22 -15
11 -20 120 -12 488 15 683 11 72 13 77 28 63 15 -14 15 -26 -10 -173z m735 7
c5 -98 5 -103 -9 -73 -21 45 -29 130 -20 200 l8 58 8 -40 c4 -22 9 -87 13
-145z m2256 110 c-7 -16 -28 -39 -47 -51 -19 -12 -43 -31 -54 -42 -29 -31 -23
-11 11 39 33 48 45 56 35 24 -10 -32 1 -23 31 24 32 50 43 53 24 6z m-195 -8
c-7 -8 -35 7 -35 18 0 6 7 6 20 -2 10 -7 17 -14 15 -16z m-2434 -134 c45 -45
47 -50 37 -79 -8 -22 -15 -28 -27 -23 -9 3 -24 9 -35 12 -16 4 -17 12 -13 56
l6 51 -14 -44 c-8 -24 -16 -46 -18 -47 -8 -9 -67 19 -67 31 0 16 29 165 36
185 4 9 14 -7 26 -39 13 -35 38 -72 69 -103z m449 9 c0 -61 -3 -87 -10 -77
-15 24 -22 89 -15 136 11 73 25 39 25 -59z m159 -6 c-10 -120 -28 -154 -29
-52 0 72 16 154 29 146 4 -2 4 -44 0 -94z m-79 -5 c0 -83 -12 -118 -24 -73 -7
28 -7 106 0 135 13 47 24 18 24 -62z m-700 -64 c0 -18 -94 -378 -102 -386 -5
-6 -12 -6 -20 2 -10 10 8 139 58 405 l6 27 29 -21 c16 -11 29 -23 29 -27z
m275 -56 c-3 -28 -8 -53 -11 -55 -7 -8 -49 53 -46 69 11 60 11 60 38 48 24
-11 26 -15 19 -62z m-1253 -200 l-5 -58 -22 37 c-26 41 -25 65 3 204 l17 85 6
-105 c3 -57 3 -130 1 -163z m1884 185 c-15 -14 -16 -13 -16 13 0 15 6 37 13
49 11 21 12 21 15 -12 2 -21 -2 -40 -12 -50z m-1972 -99 c-2 -2 -10 10 -19 28
-14 27 -15 38 -3 88 l13 57 5 -85 c3 -47 5 -87 4 -88z m1159 149 c7 -7 -52
-246 -90 -368 -15 -48 -17 -51 -39 -41 -17 8 -22 17 -19 32 3 12 9 41 14 66 4
25 23 109 41 187 34 141 34 142 59 136 15 -3 29 -9 34 -12z m745 -33 l-13 -23
-3 23 c-2 13 -1 31 3 40 6 16 7 16 16 0 7 -12 6 -25 -3 -40z m241 11 c-7 -19
-18 -41 -25 -50 -20 -23 -17 -29 14 -29 24 0 32 7 46 38 21 44 54 87 62 79 9
-9 -36 -98 -52 -104 -21 -8 -17 -23 6 -23 11 0 20 -4 20 -10 0 -5 -18 -48 -41
-95 -30 -63 -47 -89 -66 -96 -14 -5 -27 -8 -29 -6 -3 2 9 48 25 103 16 54 28
100 27 102 -2 1 -27 -49 -55 -111 -44 -94 -58 -115 -82 -124 -34 -13 -34 -18
7 121 13 44 22 81 20 83 -2 2 -28 -51 -57 -118 -49 -110 -75 -146 -99 -137 -4
2 9 64 30 138 21 74 37 136 36 137 -1 1 -31 -66 -66 -150 -68 -163 -73 -173
-103 -188 -17 -10 -18 -8 -12 23 4 18 25 94 46 168 22 74 39 139 38 145 0 5
-36 -81 -80 -192 -70 -176 -98 -227 -115 -210 -3 3 82 347 101 407 4 14 4 22
1 19 -4 -4 -31 -72 -59 -152 l-53 -145 -16 44 c-14 41 -14 47 7 121 47 162 41
187 -11 43 -15 -41 -30 -79 -34 -83 -4 -5 -18 -3 -31 5 -13 7 -25 13 -26 13
-1 1 9 43 22 95 14 51 23 95 21 97 -2 2 -23 -52 -46 -119 -24 -68 -61 -174
-83 -236 -36 -103 -57 -136 -74 -118 -3 3 9 72 28 152 l34 145 35 -5 35 -5
-33 15 c-24 10 -32 20 -28 32 18 62 36 145 33 149 -3 2 -15 -26 -27 -64 -28
-83 -32 -89 -54 -64 -17 19 -17 23 4 95 20 67 26 76 47 76 13 0 26 -7 30 -16
3 -9 8 -11 12 -6 4 7 57 2 150 -14 150 -24 385 -54 434 -54 18 0 30 6 33 18
16 48 29 75 42 88 20 21 24 13 11 -27z m-79 9 c0 -13 -9 -34 -20 -48 l-20 -25
0 28 c0 28 19 67 32 67 5 0 8 -10 8 -22z m-826 -13 c17 -13 15 -22 -44 -202
-60 -181 -74 -213 -85 -202 -3 3 14 100 37 216 44 223 44 223 92 188z m1139
-46 c-10 -17 -24 -33 -30 -36 -22 -9 -14 -23 12 -23 14 0 25 4 25 10 0 5 14
16 30 25 36 19 40 4 8 -29 -13 -13 -39 -55 -59 -92 -28 -56 -40 -70 -62 -72
l-26 -3 25 72 c13 41 23 78 21 83 -2 6 -23 -26 -46 -71 -36 -68 -47 -82 -71
-85 l-28 -4 13 41 c6 23 19 61 28 86 8 24 18 56 21 71 7 33 46 59 46 32 0 -10
-7 -26 -17 -36 -15 -17 -15 -18 7 -18 14 0 37 16 60 40 45 49 69 54 43 9z
m-1053 -51 c0 -4 -14 -60 -30 -125 -55 -211 -47 -193 -80 -193 -17 0 -30 5
-30 13 0 13 77 333 86 357 4 12 11 8 30 -15 13 -16 24 -33 24 -37z m1308 30
c-8 -13 -40 -67 -72 -120 -41 -69 -64 -98 -77 -98 -25 0 -24 5 12 91 17 41 33
82 36 92 3 9 13 17 22 17 9 0 30 9 46 19 40 26 50 26 33 -1z m-134 -60 c-51
-102 -90 -158 -111 -158 l-22 0 24 69 c37 110 41 115 108 120 16 1 17 -1 1
-31z m-1104 -73 c0 -7 -16 -56 -36 -109 -25 -66 -42 -97 -56 -102 -11 -3 -22
-4 -24 -1 -3 3 14 62 37 131 40 121 43 126 61 110 10 -10 18 -23 18 -29z
m1410 15 c11 -6 69 -11 131 -11 l111 0 -18 -22 c-50 -60 -56 -65 -75 -60 -11
3 -18 11 -16 17 2 6 7 22 11 36 l7 25 -26 -28 c-20 -23 -31 -27 -54 -22 -24 5
-28 10 -23 28 5 21 4 21 -15 5 -11 -10 -34 -18 -51 -18 -30 0 -31 1 -21 30 12
34 13 34 39 20z m389 -70 c-29 -33 -60 -60 -70 -60 -24 0 -24 -1 8 65 27 54
28 55 71 55 l43 0 -52 -60z m-88 12 c-42 -54 -60 -67 -72 -55 -7 7 -5 24 7 52
15 38 19 41 56 41 l40 0 -31 -38z m-1560 -12 c10 -6 19 -17 19 -24 0 -14 -75
-217 -92 -249 -33 -63 -13 72 41 281 2 5 13 2 32 -8z m63 -82 c3 -13 6 -34 6
-48 0 -35 -52 -160 -67 -160 -7 0 -13 3 -13 8 0 20 55 222 61 222 3 0 9 -10
13 -22z m-787 -90 c-3 -8 -6 -5 -6 6 -1 11 2 17 5 13 3 -3 4 -12 1 -19z m488
-15 c-4 -10 -10 -26 -12 -36 -4 -13 -11 -16 -27 -11 -33 10 -33 14 -3 40 33
28 52 31 42 7z m-478 -45 c-3 -8 -6 -5 -6 6 -1 11 2 17 5 13 3 -3 4 -12 1 -19z"/>
<path d="M4992 6013 c-22 -9 7 -33 39 -33 31 0 36 9 17 28 -12 12 -33 14 -56
5z"/>
<path d="M4960 5843 c-18 -7 -80 -64 -80 -74 0 -5 19 0 43 10 77 34 96 36 52
6 -40 -28 -57 -45 -77 -80 -11 -19 -11 -19 17 -1 69 46 98 58 186 80 76 19 88
25 68 31 -13 5 -46 8 -74 8 -30 0 -42 2 -31 7 18 6 18 7 2 13 -20 8 -84 8
-106 0z"/>
<path d="M4876 5607 c-18 -13 -18 -14 -2 -20 21 -8 59 10 51 24 -9 13 -28 11
-49 -4z"/>
<path d="M5276 5605 c-41 -14 -63 -30 -77 -57 -8 -15 -2 -14 38 8 40 21 59 25
115 22 57 -3 65 -1 54 11 -22 21 -90 30 -130 16z"/>
<path d="M4859 5520 l-24 -19 26 -1 c15 0 37 9 50 20 l24 19 -26 1 c-15 0 -37
-9 -50 -20z"/>
<path d="M5062 5513 c5 -23 73 -23 96 1 15 15 12 16 -42 16 -49 0 -57 -2 -54
-17z"/>
<path d="M4864 5441 c-45 -27 -53 -44 -17 -35 35 9 80 31 88 44 11 17 -38 11
-71 -9z"/>
<path d="M5030 5427 c0 -16 32 -47 48 -47 15 0 15 15 2 41 -12 22 -50 26 -50
6z"/>
<path d="M4883 5361 c-23 -11 -46 -28 -52 -40 -11 -19 -10 -20 21 -9 37 13 88
48 88 60 0 12 -10 10 -57 -11z"/>
<path d="M5030 5337 c0 -25 28 -57 48 -57 26 0 4 53 -28 70 -17 9 -20 8 -20
-13z"/>
<path d="M4883 5260 c-17 -10 -37 -28 -42 -39 -10 -19 -9 -19 18 -10 33 12 92
69 70 69 -8 0 -28 -9 -46 -20z"/>
<path d="M5030 5251 c0 -21 47 -64 61 -56 18 12 -22 75 -48 75 -7 0 -13 -9
-13 -19z"/>
<path d="M5290 5261 c-90 -6 -93 -7 -61 -18 50 -19 130 -15 171 7 32 17 33 19
10 18 -14 -1 -68 -4 -120 -7z"/>
<path d="M4934 5190 c-27 -11 -59 -53 -44 -58 15 -5 57 24 70 48 12 22 7 23
-26 10z"/>
<path d="M5450 5186 c-58 -13 -114 -38 -126 -57 -10 -17 52 -2 124 31 34 16
62 31 62 34 0 4 -1 6 -2 5 -2 0 -28 -6 -58 -13z"/>
<path d="M5028 5154 c-15 -8 -32 -24 -39 -35 -10 -19 -9 -20 13 -14 29 9 89
65 68 65 -8 -1 -27 -7 -42 -16z"/>
<path d="M5185 5156 c-35 -15 -95 -64 -95 -77 0 -12 87 33 125 65 33 28 19 34
-30 12z"/>
<path d="M5484 5121 c-33 -9 -81 -28 -105 -40 -49 -25 -153 -101 -147 -107 2
-2 78 35 168 81 91 46 161 84 155 84 -5 0 -37 -8 -71 -18z"/>
<path d="M5461 5030 c-49 -18 -117 -67 -107 -78 8 -7 132 57 151 78 22 24 23
24 -44 0z"/>
<path d="M5595 4926 c-17 -7 -36 -20 -44 -29 -12 -15 -11 -17 3 -17 22 0 69
24 85 44 17 20 -1 21 -44 2z"/>
<path d="M5352 4864 c-12 -8 -22 -22 -22 -30 0 -13 4 -13 29 0 31 16 49 46 28
46 -7 0 -23 -7 -35 -16z"/>
<path d="M5590 4830 c-38 -20 -97 -77 -88 -85 6 -6 118 66 137 88 19 23 -3 22
-49 -3z"/>
<path d="M5660 4772 c-26 -9 -70 -43 -80 -62 -9 -17 -8 -18 19 -9 27 10 89 65
80 73 -2 2 -11 1 -19 -2z"/>
<path d="M5320 4710 c-21 -21 -26 -40 -11 -40 15 0 41 30 41 46 0 19 -6 18
-30 -6z"/>
<path d="M6255 4700 c-10 -11 -15 -23 -12 -26 8 -8 57 23 57 36 0 17 -26 11
-45 -10z"/>
<path d="M6130 4630 c0 -5 5 -32 11 -61 8 -36 14 -47 20 -38 13 21 10 72 -5
92 -15 19 -26 22 -26 7z"/>
<path d="M5719 4609 c-11 -11 -18 -23 -16 -26 10 -9 47 8 57 28 15 27 -13 26
-41 -2z"/>
<path d="M5823 4586 c-15 -13 -25 -27 -21 -31 11 -12 46 5 62 30 14 21 14 25
2 25 -8 0 -28 -11 -43 -24z"/>
<path d="M5825 4473 c-30 -33 -34 -59 -7 -44 18 9 43 36 56 59 14 23 -23 12
-49 -15z"/>
<path d="M5820 4252 c-63 -48 -117 -96 -146 -131 l-29 -35 34 20 c18 10 63 44
99 74 93 78 128 138 42 72z"/>
<path d="M6179 4196 c-40 -30 -79 -74 -104 -115 -5 -8 13 1 40 20 48 34 122
115 113 124 -3 3 -25 -10 -49 -29z"/>
<path d="M5860 4203 c-56 -37 -115 -103 -92 -103 13 0 101 79 113 101 12 23
10 23 -21 2z"/>
<path d="M5930 4158 c-39 -23 -63 -51 -49 -56 13 -5 76 36 83 55 10 24 3 24
-34 1z"/>
<path d="M5974 4132 c-12 -9 -27 -27 -33 -39 -17 -33 4 -30 40 6 43 44 38 70
-7 33z"/>
<path d="M6620 4135 c-12 -15 -10 -16 21 -13 37 3 46 21 13 26 -11 2 -27 -4
-34 -13z"/>
<path d="M6019 4104 c-11 -14 -10 -15 11 -12 13 1 25 9 28 16 5 17 -23 15 -39
-4z"/>
<path d="M6474 4086 c6 -23 5 -24 -27 -14 -28 8 -42 7 -80 -10 -26 -12 -47
-26 -47 -32 0 -7 9 -5 22 4 28 20 78 20 125 1 52 -22 96 -19 121 8 30 32 28
39 -13 31 -26 -5 -44 -1 -71 15 l-36 22 6 -25z"/>
<path d="M6630 4053 c-63 -49 -73 -78 -23 -64 31 8 67 51 61 75 -2 13 -9 11
-38 -11z"/>
<path d="M5975 4028 c-75 -14 -74 -25 2 -32 61 -6 164 2 248 20 92 20 -149 31
-250 12z"/>
<path d="M4400 6300 c-51 -66 -97 -120 -101 -120 -5 0 -13 -9 -19 -21 -9 -17
0 -14 60 18 48 26 95 63 146 116 42 43 74 81 71 84 -3 2 -19 -3 -37 -12 -38
-20 -44 -16 -30 20 6 15 9 30 7 32 -2 2 -46 -51 -97 -117z"/>
<path d="M4290 6274 c-41 -42 -111 -100 -154 -129 -57 -39 -91 -71 -123 -116
-23 -34 -41 -64 -39 -67 10 -10 125 77 214 162 82 79 199 226 180 226 -2 0
-37 -34 -78 -76z"/>
<path d="M4095 6201 c-64 -29 -139 -103 -171 -170 -16 -33 -34 -63 -41 -65
-13 -6 -6 20 22 74 23 44 18 48 -11 9 -51 -68 -115 -215 -134 -311 -32 -152
-22 -152 30 2 46 134 61 147 24 20 -21 -75 -29 -259 -15 -345 15 -88 33 -120
30 -55 -1 25 -1 86 1 135 l2 90 13 -65 c14 -67 47 -164 66 -190 9 -13 10 -13
5 0 -40 116 -41 126 -41 295 1 190 12 251 68 364 31 64 116 162 182 209 36 26
24 27 -30 3z"/>
<path d="M3908 5770 c-30 -99 -17 -227 33 -339 32 -69 48 -79 25 -14 -24 69
-39 155 -45 268 -4 72 -9 101 -13 85z"/>
<path d="M4172 5708 c-14 -14 -16 -44 -3 -53 14 -8 30 27 22 48 -5 14 -9 15
-19 5z"/>
<path d="M4042 5647 c-16 -37 -15 -70 2 -111 24 -56 33 -50 25 17 -5 34 -10
76 -12 92 l-3 30 -12 -28z"/>
<path d="M4084 5646 c-8 -21 3 -49 16 -41 5 3 10 15 10 25 0 25 -18 36 -26 16z"/>
<path d="M3682 5575 c-20 -67 -15 -262 8 -337 22 -71 62 -138 111 -183 l33
-30 -23 35 c-27 41 -86 164 -96 200 -5 17 4 10 27 -22 48 -69 61 -66 28 5 -35
73 -58 170 -68 287 l-8 85 -12 -40z"/>
<path d="M3870 5220 c0 -38 56 -100 90 -100 19 0 16 6 -26 61 -59 75 -64 78
-64 39z"/>
<path d="M2806 5145 c7 -72 26 -123 71 -192 30 -45 74 -94 62 -68 -3 6 -22 45
-42 87 -21 43 -51 112 -67 155 l-30 78 6 -60z"/>
<path d="M3640 5180 c0 -31 25 -83 50 -105 l23 -20 -6 38 c-6 40 -42 107 -58
107 -5 0 -9 -9 -9 -20z"/>
<path d="M4004 5010 c-40 -60 -73 -163 -79 -243 l-5 -72 25 80 c14 44 41 124
60 178 19 53 32 97 30 97 -3 0 -17 -18 -31 -40z"/>
<path d="M3781 4861 c-14 -19 -25 -52 -28 -79 l-4 -47 25 30 c26 30 41 78 34
111 -3 16 -7 13 -27 -15z"/>
<path d="M3520 4731 c0 -8 -67 -513 -75 -566 -9 -61 37 93 56 185 19 94 38
390 26 390 -4 0 -7 -4 -7 -9z"/>
<path d="M4121 4544 c0 -11 3 -14 6 -6 3 7 2 16 -1 19 -3 4 -6 -2 -5 -13z"/>
<path d="M3366 4073 c-34 -51 -54 -110 -62 -184 -5 -46 -4 -60 5 -55 6 4 11
13 11 20 0 8 17 68 39 135 21 66 37 121 35 121 -2 0 -15 -17 -28 -37z"/>
<path d="M3573 6196 c-37 -41 -90 -111 -117 -155 -56 -93 -112 -249 -121 -336
l-5 -60 23 75 c58 185 143 347 262 503 21 26 35 47 32 47 -3 0 -36 -33 -74
-74z"/>
<path d="M3729 6202 c-82 -52 -146 -146 -168 -244 -12 -54 -7 -59 15 -16 27
53 113 178 161 236 25 28 43 52 41 52 -2 0 -24 -13 -49 -28z"/>
<path d="M3602 6176 c-96 -109 -142 -218 -148 -346 -2 -47 -1 -76 2 -65 30
105 85 247 130 337 30 59 52 108 50 108 -2 0 -17 -15 -34 -34z"/>
<path d="M3630 3953 c0 -21 62 -187 92 -248 40 -79 99 -177 104 -172 8 7 -57
180 -100 268 -46 91 -96 171 -96 152z"/>
<path d="M2278 6478 c-32 -57 -69 -130 -84 -163 -43 -96 -104 -247 -104 -257
0 -5 10 -8 22 -6 17 2 29 21 53 83 42 105 123 275 169 355 36 61 40 90 14 90
-8 0 -39 -46 -70 -102z"/>
<path d="M7634 6566 c-3 -7 12 -41 32 -76 45 -78 115 -223 163 -344 30 -72 42
-92 59 -94 28 -4 28 1 -4 79 -57 142 -89 209 -152 327 -62 115 -85 141 -98
108z"/>
<path d="M1200 5065 l0 -205 95 0 95 0 0 30 0 30 -60 0 -60 0 0 60 0 60 50 0
c49 0 50 1 50 30 0 29 -1 30 -50 30 l-50 0 0 55 0 55 60 0 60 0 0 30 0 30 -95
0 -95 0 0 -205z"/>
<path d="M1464 5247 c-23 -20 -28 -34 -32 -85 -6 -83 10 -106 80 -121 58 -13
68 -22 68 -66 0 -51 -12 -59 -79 -58 -61 2 -61 2 -61 -26 0 -27 3 -29 48 -33
118 -10 157 21 157 127 0 79 -17 101 -89 112 l-51 8 0 50 0 50 63 3 c62 3 63
3 60 30 -3 26 -6 27 -69 30 -58 2 -70 0 -95 -21z"/>
<path d="M1670 5240 c0 -28 2 -30 40 -30 l40 0 0 -175 0 -175 35 0 35 0 0 175
0 175 40 0 c38 0 40 2 40 30 l0 30 -115 0 -115 0 0 -30z"/>
<path d="M1940 5066 l0 -206 75 0 c137 0 148 16 143 219 -4 179 -7 182 -133
189 l-85 5 0 -207z m139 131 c15 -18 24 -171 14 -227 -8 -43 -10 -45 -46 -48
l-37 -3 0 145 0 146 29 0 c16 0 34 -6 40 -13z"/>
<path d="M7877 5263 c-4 -3 -7 -17 -7 -30 0 -22 4 -23 65 -23 60 0 65 -2 71
-24 12 -47 0 -70 -51 -103 -77 -50 -85 -64 -85 -149 l0 -74 105 0 105 0 0 30
0 30 -70 0 -70 0 0 40 c0 38 3 41 56 72 59 33 84 70 84 126 0 42 -19 91 -40
102 -21 11 -153 14 -163 3z"/>
<path d="M8159 5252 c-29 -24 -39 -105 -30 -246 5 -82 10 -108 25 -125 23 -26
74 -36 123 -24 60 14 73 50 73 204 0 133 -10 183 -40 199 -32 17 -125 12 -151
-8z m119 -181 c3 -145 -3 -164 -47 -159 -33 4 -39 27 -40 150 -1 124 8 150 51
146 l33 -3 3 -134z"/>
<path d="M8407 5263 c-4 -3 -7 -17 -7 -30 0 -22 4 -23 65 -23 60 0 65 -2 71
-24 12 -47 0 -70 -51 -103 -77 -50 -85 -64 -85 -149 l0 -74 105 0 105 0 0 30
0 30 -70 0 -70 0 0 39 c0 37 3 41 56 72 59 33 84 71 84 127 0 42 -19 91 -40
102 -21 11 -153 14 -163 3z"/>
<path d="M8692 5142 c-23 -70 -42 -142 -42 -160 l0 -32 65 0 65 0 0 -45 c0
-45 0 -45 35 -45 35 0 35 0 35 45 0 38 3 45 20 45 15 0 20 7 20 26 0 17 -6 28
-20 31 -17 5 -20 14 -20 64 0 56 -1 59 -25 59 -22 0 -25 -5 -31 -60 l-7 -60
-33 0 c-19 0 -34 4 -34 10 0 5 18 60 40 121 22 62 40 116 40 121 0 4 -15 8
-33 8 l-33 0 -42 -128z"/>
<path d="M1134 4665 c-3 -8 -3 -19 1 -25 4 -7 180 -10 546 -10 l539 0 0 25 0
25 -540 0 c-463 0 -541 -2 -546 -15z"/>
<path d="M7780 4655 l0 -25 543 2 c534 3 542 3 542 23 0 20 -8 20 -542 23
l-543 2 0 -25z"/>
<path d="M1310 3937 c0 -12 104 -308 136 -387 97 -240 273 -559 433 -782 425
-594 1040 -1073 1721 -1341 695 -273 1447 -335 2188 -182 1065 222 2007 909
2547 1860 129 226 257 518 326 742 11 36 23 72 26 79 4 11 -13 14 -90 14 l-95
0 -23 -67 c-235 -718 -686 -1342 -1305 -1809 -182 -137 -316 -218 -549 -334
-298 -147 -566 -241 -870 -305 -460 -96 -898 -106 -1356 -30 -621 103 -1189
357 -1684 752 -138 110 -385 351 -507 495 -288 339 -518 744 -668 1176 l-43
122 -93 0 c-52 0 -94 -2 -94 -3z"/>
<path d="M2112 3883 c66 -180 178 -396 306 -593 74 -115 204 -280 220 -280 32
0 20 33 -39 107 -171 215 -351 530 -444 776 -14 38 -22 47 -41 47 l-24 0 22
-57z"/>
<path d="M7830 3858 c-103 -255 -271 -544 -437 -751 -52 -65 -62 -97 -30 -97
14 0 157 184 229 296 118 183 230 401 294 572 l24 62 -23 0 c-19 0 -28 -13
-57 -82z"/>
<path d="M4001 2410 c-57 -9 -97 -52 -106 -112 -4 -24 -5 -125 -3 -224 4 -248
16 -268 163 -268 94 -1 134 13 161 57 16 28 19 55 22 212 6 269 -10 315 -117
335 -58 11 -55 11 -120 0z m126 -110 c9 -17 13 -77 13 -190 0 -199 -5 -214
-70 -218 -75 -4 -75 -6 -78 203 -4 225 0 238 76 233 38 -2 49 -8 59 -28z"/>
<path d="M4720 2315 l0 -65 -31 0 c-29 0 -30 -2 -27 -37 3 -33 7 -38 31 -41
l27 -3 0 -180 0 -179 45 0 45 0 0 180 0 180 35 0 c34 0 35 1 35 40 0 39 -1 40
-35 40 l-35 0 0 65 0 65 -45 0 -45 0 0 -65z"/>
<path d="M4523 2250 c-12 -5 -30 -24 -40 -42 l-18 -33 -3 38 c-3 37 -4 37 -48
37 l-44 0 0 -220 0 -220 50 0 50 0 0 136 c0 155 13 200 59 210 50 11 51 12 51
59 0 48 -9 54 -57 35z"/>
<path d="M5040 2242 c-54 -27 -64 -58 -65 -202 0 -158 11 -195 69 -221 43 -20
92 -23 170 -13 45 7 46 7 46 44 l0 37 -75 -5 c-94 -6 -115 8 -115 75 l0 43
100 0 100 0 -1 78 c0 42 -5 93 -12 112 -15 44 -64 70 -132 70 -28 0 -66 -8
-85 -18z m134 -78 c3 -9 6 -33 6 -55 l0 -39 -55 0 -55 0 0 43 c0 24 5 48 12
55 18 18 85 15 92 -4z"/>
<path d="M5443 2248 c-38 -18 -53 -76 -53 -206 0 -64 5 -134 10 -154 23 -80
114 -105 172 -48 l30 31 -4 -67 c-5 -85 -17 -94 -115 -94 l-73 0 0 -35 c0 -35
0 -35 48 -37 82 -4 144 2 172 17 53 27 60 68 60 346 l0 250 -42 -3 c-35 -2
-44 -7 -46 -24 -3 -21 -4 -20 -32 7 -31 31 -83 38 -127 17z m133 -82 c17 -13
19 -27 19 -131 0 -104 -2 -118 -19 -131 -29 -21 -63 -17 -80 8 -12 17 -16 48
-16 125 0 90 3 106 20 123 24 24 49 25 76 6z"/>
<path d="M5863 2253 c-30 -4 -33 -7 -33 -39 l0 -34 79 0 c90 0 97 -5 102 -70
l4 -45 -52 3 c-76 5 -122 -13 -139 -54 -17 -40 -18 -95 -3 -147 20 -72 122
-87 174 -25 l25 30 0 -31 c0 -30 1 -31 46 -31 l46 0 -4 183 c-3 205 -12 236
-69 256 -31 11 -108 12 -176 4z m150 -250 c9 -15 -10 -105 -24 -114 -20 -13
-63 -11 -77 3 -7 7 -12 30 -12 53 0 23 5 46 12 53 13 13 94 17 101 5z"/>
</g>
</svg>
